<svg width="167" height="142" viewBox="0 0 167 142" fill="none" xmlns="http://www.w3.org/2000/svg">
<path opacity="0.8" d="M69 0C46.3508 0 28 18.3508 28 41C28 63.6492 46.3508 82 69 82C91.6492 82 110 63.6492 110 41C110 18.3508 91.6492 0 69 0ZM84.871 54.2258C84.871 55.6806 83.6806 56.871 82.2258 56.871H55.7742C54.3194 56.871 53.129 55.6806 53.129 54.2258V27.7742C53.129 26.3194 54.3194 25.129 55.7742 25.129H82.2258C83.6806 25.129 84.871 26.3194 84.871 27.7742V54.2258Z" fill="#FF2C2C"/>
<path opacity="0.8" d="M165.717 127.799C169.37 134.111 164.785 142 157.488 142H62.5107C55.2003 142 50.6359 134.099 54.282 127.799L101.771 45.7314C105.426 39.4171 114.58 39.4286 118.229 45.7314L165.717 127.799V127.799ZM110 110.832C104.972 110.832 100.896 114.895 100.896 119.906C100.896 124.918 104.972 128.98 110 128.98C115.028 128.98 119.104 124.918 119.104 119.906C119.104 114.895 115.028 110.832 110 110.832ZM101.356 78.215L102.825 105.043C102.893 106.298 103.935 107.281 105.196 107.281H114.804C116.065 107.281 117.107 106.298 117.176 105.043L118.644 78.215C118.718 76.8589 117.635 75.7188 116.272 75.7188H103.728C102.365 75.7188 101.282 76.8589 101.356 78.215V78.215Z" fill="#FFC658"/>
<path opacity="0.8" d="M73.9801 92.6054L68.1795 86.8054C66.8026 85.4287 64.5761 85.4287 63.2138 86.8054L28.1316 121.883L11.8137 105.553C10.4368 104.176 8.21025 104.176 6.84798 105.553L1.03269 111.367C-0.34423 112.744 -0.34423 114.97 1.03269 116.347L25.6415 140.967C27.0184 142.344 29.2449 142.344 30.6072 140.967L73.9655 97.5851C75.3424 96.1937 75.3424 93.9675 73.9801 92.6054ZM26.4764 108.13C27.3846 109.053 28.8787 109.053 29.7869 108.13L60.2549 77.6369C61.1631 76.7142 61.1631 75.2349 60.2549 74.3268L53.6339 67.692C52.7258 66.7693 51.2317 66.7693 50.3235 67.692L28.1316 89.8812L20.0166 81.7525C19.1084 80.8298 17.6143 80.8298 16.7061 81.7525L10.0706 88.3872C9.16237 89.31 9.16237 90.7892 10.0706 91.6973L26.4764 108.13Z" fill="#2B8FF9"/>
</svg>
