<svg width="49" height="49" viewBox="0 0 49 49" fill="none" xmlns="http://www.w3.org/2000/svg">
<path d="M48.3337 16.7288L44.5439 12.9396C43.6443 12.0401 42.1897 12.0401 41.2997 12.9396L18.3793 35.8571L7.71827 25.1878C6.81868 24.2883 5.36403 24.2883 4.47401 25.1878L0.67469 28.9866C-0.224897 29.8861 -0.224897 31.3406 0.67469 32.2401L16.7524 48.3254C17.652 49.2249 19.1067 49.2249 19.9967 48.3254L48.3241 19.9823C49.2237 19.0732 49.2237 17.6188 48.3337 16.7288ZM17.2979 26.8719C17.8913 27.4747 18.8674 27.4747 19.4608 26.8719L39.3665 6.94942C39.9599 6.34658 39.9599 5.38012 39.3665 4.78685L35.0408 0.452131C34.4475 -0.15071 33.4713 -0.15071 32.878 0.452131L18.3793 14.949L13.0775 9.63828C12.4842 9.03544 11.508 9.03544 10.9147 9.63828L6.57943 13.973C5.98608 14.5758 5.98608 15.5423 6.57943 16.1356L17.2979 26.8719Z" fill="#2B8FF9"/>
</svg>
